<svg xmlns="http://www.w3.org/2000/svg" viewBox="0 0 512 512" width="512" height="512">
  <rect width="512" height="512" fill="#0d2050"/>
  <g transform="translate(64 64) scale(2)">
    <defs>
      <linearGradient id="stick" x1="0" y1="0" x2="1" y2="1">
        <stop offset="0%" stop-color="#2E74D1"/>
        <stop offset="100%" stop-color="#0B3C8C"/>
      </linearGradient>
      <radialGradient id="ball" cx="35%" cy="30%" r="75%">
        <stop offset="0%" stop-color="#FFFFFF"/>
        <stop offset="100%" stop-color="#E4E8EF"/>
      </radialGradient>
    </defs>
    <g transform="rotate(38 96 96)">
      <rect x="90" y="30" width="12" height="82" rx="6" fill="url(#stick)"/>
      <rect x="90" y="30" width="12" height="14" rx="5" fill="#0A234F"/>
      <rect x="91" y="42" width="10" height="6" rx="2.5" fill="#8CC0FF"/>
      <rect x="91" y="49" width="10" height="6" rx="2.5" fill="#C7E0FF"/>
      <path d="M90 106 H102 V126 C102 137 94 145 83 145 H73 C65 145 59 139 59 131 C59 123 65 117 73 117 H79 C85 117 90 112 90 106 Z" fill="url(#stick)"/>
    </g>
    <circle cx="128" cy="127" r="20" fill="url(#ball)"/>
    <circle cx="121" cy="120" r="6" fill="#FFFFFF" opacity="0.7"/>
    <circle cx="128" cy="127" r="20" fill="none" stroke="#D4DBE5" stroke-width="2"/>
  </g>
</svg>
